<svg width="495" height="272" viewBox="0 0 495 272" fill="none" xmlns="http://www.w3.org/2000/svg">
<path d="M0 184.438C0 232.572 49.8867 271.625 111.375 271.625H396C450.682 271.625 495 236.932 495 194.125C495 156.646 460.969 125.344 415.8 118.199C418.971 111.721 420.75 104.637 420.75 97.25C420.75 65.1602 387.492 39.125 346.5 39.125C331.263 39.125 317.032 42.7578 305.276 48.9336C283.852 19.8711 243.865 0.375 198 0.375C129.628 0.375 74.25 43.7266 74.25 97.25C74.25 98.8848 74.3273 100.52 74.4047 102.154C31.0922 114.082 0 146.414 0 184.438Z" fill="white"/>
</svg>
